<svg width="199" height="60" viewBox="0 0 199 60" fill="none" xmlns="http://www.w3.org/2000/svg">
<g clip-path="url(#clip0_38_142)">
<path d="M77.3627 32.4047C75.7775 29.6876 73.6019 27.5116 70.9036 25.9327C68.1828 24.3426 65.0967 23.5391 61.7294 23.5391C58.3621 23.5391 55.276 24.3426 52.5383 25.9271C49.8175 27.506 47.6308 29.6876 46.0455 32.4047C44.4546 35.133 43.6451 38.2239 43.6451 41.5938C43.6451 44.9637 44.3816 47.971 45.8319 50.6546C47.2991 53.3662 49.3341 55.5533 51.8862 57.149C54.489 58.7726 57.4458 59.5983 60.6782 59.5983C63.6969 59.5983 66.4739 58.8786 68.9417 57.4614C69.0036 57.5284 69.0654 57.5897 69.1273 57.6511C70.3021 58.8228 71.8312 59.4365 73.5514 59.4365C75.2715 59.4365 76.7949 58.8172 77.9698 57.6511C79.1447 56.485 79.7687 54.9675 79.7687 53.2658V41.5882C79.7687 38.2183 78.9592 35.1274 77.3683 32.3991L77.3627 32.4047ZM64.6863 47.1229C63.8375 47.6418 62.8706 47.8873 61.7294 47.8873C60.5882 47.8873 59.6495 47.6307 58.7781 47.1118C57.8843 46.5762 57.1929 45.8508 56.6645 44.9024C56.1248 43.9371 55.8662 42.8548 55.8662 41.5938C55.8662 40.3329 56.1248 39.2003 56.6645 38.2351C57.1929 37.2866 57.8843 36.5669 58.7781 36.0312C59.6495 35.5068 60.6164 35.2557 61.7294 35.2557C62.8425 35.2557 63.8375 35.5068 64.6863 36.0201C65.5632 36.5557 66.2378 37.2699 66.7494 38.2072C67.2778 39.1836 67.5364 40.2883 67.5364 41.5938C67.5364 42.8994 67.2778 43.9539 66.7494 44.9303C66.2378 45.8732 65.5632 46.5873 64.6863 47.1229Z" fill="#5127FF"/>
<path d="M117.832 13.2509C116.674 12.1015 115.133 11.4934 113.391 11.4934C111.648 11.4934 110.186 12.0848 109.017 13.2062C107.814 14.3612 107.173 15.9011 107.173 17.6585V24.8726C105.11 23.9799 102.879 23.528 100.518 23.528C97.2852 23.528 94.3283 24.3537 91.7256 25.9773C89.1734 27.573 87.1328 29.7545 85.6712 32.4716C84.2209 35.1553 83.4845 38.2072 83.4845 41.5324C83.4845 44.8577 84.294 47.9933 85.8849 50.7216C87.4757 53.4443 89.6569 55.6202 92.3777 57.1992C95.1097 58.7837 98.2015 59.5871 101.569 59.5871C104.936 59.5871 108.028 58.7837 110.743 57.1936C113.441 55.6147 115.617 53.4387 117.202 50.7216C118.793 47.9933 119.602 44.9024 119.602 41.5324V17.6697C119.602 15.9345 118.99 14.4114 117.826 13.2565L117.832 13.2509ZM106.583 44.9191C106.072 45.8732 105.397 46.5929 104.526 47.1229C103.677 47.6418 102.71 47.8873 101.569 47.8873C100.428 47.8873 99.4888 47.6306 98.6175 47.1118C97.7293 46.5762 97.0379 45.8508 96.5094 44.8912C95.9642 43.9037 95.7 42.8101 95.7 41.5436C95.7 40.2771 95.9585 39.1724 96.4926 38.2239C97.021 37.2866 97.7124 36.5724 98.6175 36.0257C99.4888 35.5012 100.456 35.2501 101.569 35.2501C102.682 35.2501 103.677 35.5012 104.526 36.0145C105.408 36.5501 106.088 37.2643 106.6 38.196C107.123 39.1501 107.381 40.2436 107.381 41.5436C107.381 42.8436 107.123 43.926 106.583 44.9191Z" fill="#5127FF"/>
<path d="M156.828 32.2987C155.271 29.576 153.095 27.4112 150.369 25.8601C147.659 24.3203 144.545 23.5391 141.127 23.5391C137.709 23.5391 134.544 24.3203 131.829 25.8601C129.103 27.4112 126.933 29.576 125.37 32.2987C123.824 35.0046 123.037 38.1291 123.037 41.5938C123.037 45.0586 123.824 48.1328 125.37 50.8332C126.927 53.5615 129.103 55.7262 131.829 57.2717C134.539 58.8116 137.664 59.5927 141.127 59.5927C144.59 59.5927 147.71 58.8116 150.425 57.2717C153.157 55.7207 155.327 53.5447 156.867 50.8109C158.391 48.1105 159.161 45.0084 159.161 41.5882C159.161 38.1681 158.374 34.9991 156.828 32.2931V32.2987ZM146.169 45.0195C145.68 45.9234 145.023 46.6152 144.168 47.1285C143.314 47.6362 142.319 47.8873 141.127 47.8873C139.935 47.8873 138.946 47.6418 138.086 47.1285C137.22 46.6096 136.551 45.9122 136.04 44.9916C135.517 44.0431 135.258 42.9329 135.258 41.5938C135.258 40.2548 135.517 39.1278 136.045 38.1514C136.551 37.2196 137.22 36.5166 138.08 36.0033C138.935 35.4956 139.93 35.2446 141.121 35.2446C142.313 35.2446 143.303 35.49 144.163 36.0033C145.017 36.5111 145.669 37.2029 146.158 38.1235C146.681 39.1054 146.934 40.2381 146.934 41.5938C146.934 42.9496 146.681 44.0599 146.164 45.0195H146.169Z" fill="#F14B80"/>
<path d="M196.667 32.2987C195.11 29.576 192.934 27.4112 190.208 25.8601C187.498 24.3203 184.384 23.5391 180.966 23.5391C177.549 23.5391 174.384 24.3203 171.668 25.8601C168.942 27.4112 166.772 29.576 165.209 32.2987C163.663 35.0046 162.876 38.1291 162.876 41.5938C162.876 45.0586 163.663 48.1328 165.209 50.8332C166.767 53.5615 168.942 55.7262 171.668 57.2717C174.378 58.8116 177.504 59.5927 180.966 59.5927C184.429 59.5927 187.549 58.8116 190.264 57.2717C192.996 55.7207 195.166 53.5447 196.706 50.8109C198.23 48.1105 199 45.0084 199 41.5882C199 38.1681 198.213 34.9991 196.667 32.2931V32.2987ZM186.009 45.0195C185.52 45.9234 184.862 46.6152 184.008 47.1285C183.153 47.6362 182.158 47.8873 180.966 47.8873C179.775 47.8873 178.785 47.6418 177.925 47.1285C177.059 46.6096 176.39 45.9122 175.879 44.9916C175.356 44.0431 175.098 42.9329 175.098 41.5938C175.098 40.2548 175.356 39.1278 175.885 38.1514C176.39 37.2196 177.059 36.5166 177.92 36.0033C178.774 35.4956 179.769 35.2446 180.961 35.2446C182.152 35.2446 183.142 35.49 184.002 36.0033C184.856 36.5111 185.508 37.2029 185.998 38.1235C186.52 39.1054 186.773 40.2381 186.773 41.5938C186.773 42.9496 186.52 44.0599 186.003 45.0195H186.009Z" fill="#F4DA02"/>
<path d="M15.8806 7.878V22.8696C12.4516 22.1666 9.44969 22.1499 7.40347 22.2894C3.24359 22.5683 0.0505932 25.9773 0 30.0502V7.878C0 3.53171 3.55277 0 7.94314 0C12.3335 0 15.8806 3.53171 15.8806 7.878Z" fill="#5127FF"/>
<path d="M30.0243 30.0837C29.1586 29.297 28.2198 28.5326 27.1967 27.7962C23.7788 25.3413 20.2542 23.9185 17.0387 23.1263C17.3198 22.9533 17.5952 22.7692 17.8763 22.5683C23.9981 18.1663 23.7339 8.73721 23.7282 8.40245C23.5484 4.05059 26.9606 0.384972 31.3341 0.212013C35.7188 0.0613715 39.4178 3.42012 39.592 7.76083C39.6595 9.35652 39.8731 20.8834 30.0243 30.0837Z" fill="#F14B80"/>
<path d="M30.0243 30.0837C30.0243 30.0837 30.0074 30.1004 30.0018 30.106C29.1417 30.9094 28.2142 31.6738 27.1967 32.4047C20.7432 37.0467 13.9075 37.9784 9.46655 37.9784C8.70203 37.9784 8.00497 37.9561 7.40347 37.9171C3.36726 37.6381 0.213616 34.4188 0.0112429 30.4519C0 30.318 0 30.1841 0 30.0502C0.0505932 25.9773 3.24359 22.5683 7.40347 22.2894C9.44969 22.1499 12.4516 22.1666 15.8806 22.8696C16.2573 22.9477 16.6452 23.037 17.0387 23.1263C20.2542 23.9185 23.7788 25.3413 27.1967 27.7962C28.2198 28.5326 29.1586 29.297 30.0243 30.0837Z" fill="#F29241"/>
<path d="M39.5921 52.44C39.4235 56.6803 35.9044 60 31.6659 60C31.559 60 31.4466 60 31.3398 59.9944C26.9607 59.8215 23.5485 56.1503 23.7283 51.804C23.7396 51.4581 23.9982 44.9582 17.8764 40.5616C14.3686 38.0342 10.4729 37.8836 8.47167 38.0175C4.08131 38.3132 0.3093 35.027 0.0169832 30.6807C0.0113617 30.6026 0.00574022 30.53 0.0113617 30.4519C0.213735 34.4188 3.36738 37.6381 7.40359 37.9171C8.00509 37.9561 8.70215 37.9784 9.46667 37.9784C13.9076 37.9784 20.7433 37.0467 27.1968 32.4047C28.2143 31.6738 29.1418 30.9094 30.0019 30.106C30.0075 30.1004 30.0188 30.0893 30.0244 30.0837C39.8732 39.0831 39.6596 50.8555 39.5921 52.44Z" fill="#F4DA02"/>
<path d="M15.8863 52.0997C15.8863 56.4571 12.3279 59.9833 7.94314 59.9833C3.55839 59.9833 0 56.4571 0 52.0997C0 47.7422 3.55277 44.2217 7.94314 44.2217C12.3335 44.2217 15.8863 47.7478 15.8863 52.0997Z" fill="#5127FF"/>
</g>
<defs>
<clipPath id="clip0_38_142">
<rect width="199" height="60" fill="white"/>
</clipPath>
</defs>
</svg>
