<svg width="400" height="151" viewBox="0 0 400 151" fill="none" xmlns="http://www.w3.org/2000/svg">
<path d="M3.63541 137.152V142.193H9.1318V143.816H3.63541V149.01H9.78098V150.633H1.66623V135.529H9.78098V137.152H3.63541ZM12.0249 144.66C12.0249 143.449 12.2701 142.388 12.7606 141.479C13.2511 140.556 13.9219 139.842 14.7731 139.337C15.6387 138.832 16.6052 138.58 17.6728 138.58C18.596 138.58 19.4544 138.796 20.2478 139.229C21.0413 139.647 21.6472 140.203 22.0655 140.895V134.62H24.0564V150.633H22.0655V148.404C21.676 149.111 21.099 149.695 20.3344 150.157C19.5698 150.604 18.6754 150.828 17.6511 150.828C16.598 150.828 15.6387 150.568 14.7731 150.049C13.9219 149.529 13.2511 148.801 12.7606 147.863C12.2701 146.925 12.0249 145.858 12.0249 144.66ZM22.0655 144.682C22.0655 143.788 21.8852 143.009 21.5246 142.345C21.1639 141.681 20.6734 141.176 20.0531 140.83C19.4472 140.47 18.7764 140.289 18.0406 140.289C17.3049 140.289 16.6341 140.462 16.0282 140.809C15.4223 141.155 14.939 141.66 14.5783 142.323C14.2177 142.987 14.0373 143.766 14.0373 144.66C14.0373 145.569 14.2177 146.363 14.5783 147.041C14.939 147.704 15.4223 148.216 16.0282 148.577C16.6341 148.923 17.3049 149.096 18.0406 149.096C18.7764 149.096 19.4472 148.923 20.0531 148.577C20.6734 148.216 21.1639 147.704 21.5246 147.041C21.8852 146.363 22.0655 145.576 22.0655 144.682ZM37.9008 138.774V150.633H35.9316V148.88C35.5565 149.486 35.03 149.962 34.352 150.308C33.6883 150.64 32.9526 150.806 32.1447 150.806C31.2215 150.806 30.392 150.618 29.6562 150.243C28.9205 149.854 28.3362 149.277 27.9034 148.512C27.4851 147.748 27.2759 146.817 27.2759 145.721V138.774H29.2234V145.461C29.2234 146.63 29.5192 147.531 30.1106 148.166C30.7021 148.786 31.51 149.096 32.5342 149.096C33.5874 149.096 34.4169 148.772 35.0228 148.123C35.6287 147.473 35.9316 146.529 35.9316 145.288V138.774H37.9008ZM40.4899 144.682C40.4899 143.456 40.7352 142.388 41.2257 141.479C41.7161 140.556 42.3942 139.842 43.2598 139.337C44.1398 138.832 45.1424 138.58 46.2676 138.58C47.7247 138.58 48.922 138.933 49.8598 139.64C50.8119 140.347 51.4394 141.328 51.7424 142.583H49.6217C49.4198 141.862 49.023 141.292 48.4316 140.873C47.8545 140.455 47.1332 140.246 46.2676 140.246C45.1424 140.246 44.2335 140.635 43.5411 141.414C42.8486 142.179 42.5024 143.268 42.5024 144.682C42.5024 146.11 42.8486 147.214 43.5411 147.993C44.2335 148.772 45.1424 149.161 46.2676 149.161C47.1332 149.161 47.8545 148.959 48.4316 148.555C49.0086 148.152 49.4053 147.574 49.6217 146.824H51.7424C51.425 148.036 50.7902 149.01 49.8381 149.746C48.886 150.467 47.6958 150.828 46.2676 150.828C45.1424 150.828 44.1398 150.575 43.2598 150.07C42.3942 149.565 41.7161 148.851 41.2257 147.928C40.7352 147.005 40.4899 145.923 40.4899 144.682ZM53.6341 144.66C53.6341 143.449 53.8794 142.388 54.3699 141.479C54.8604 140.556 55.5312 139.842 56.3823 139.337C57.2479 138.832 58.2072 138.58 59.2604 138.58C60.299 138.58 61.2007 138.803 61.9653 139.251C62.7299 139.698 63.2997 140.26 63.6748 140.938V138.774H65.6656V150.633H63.6748V148.426C63.2853 149.118 62.701 149.695 61.922 150.157C61.1574 150.604 60.263 150.828 59.2387 150.828C58.1856 150.828 57.2335 150.568 56.3823 150.049C55.5312 149.529 54.8604 148.801 54.3699 147.863C53.8794 146.925 53.6341 145.858 53.6341 144.66ZM63.6748 144.682C63.6748 143.788 63.4945 143.009 63.1338 142.345C62.7731 141.681 62.2827 141.176 61.6623 140.83C61.0564 140.47 60.3856 140.289 59.6499 140.289C58.9141 140.289 58.2433 140.462 57.6374 140.809C57.0315 141.155 56.5482 141.66 56.1876 142.323C55.8269 142.987 55.6466 143.766 55.6466 144.66C55.6466 145.569 55.8269 146.363 56.1876 147.041C56.5482 147.704 57.0315 148.216 57.6374 148.577C58.2433 148.923 58.9141 149.096 59.6499 149.096C60.3856 149.096 61.0564 148.923 61.6623 148.577C62.2827 148.216 62.7731 147.704 63.1338 147.041C63.4945 146.363 63.6748 145.576 63.6748 144.682ZM71.3953 140.397V147.387C71.3953 147.964 71.5179 148.375 71.7632 148.62C72.0084 148.851 72.434 148.967 73.0399 148.967H74.4897V150.633H72.7153C71.6189 150.633 70.7966 150.38 70.2484 149.875C69.7002 149.371 69.4261 148.541 69.4261 147.387V140.397H67.8897V138.774H69.4261V135.788H71.3953V138.774H74.4897V140.397H71.3953ZM77.8927 136.849C77.5176 136.849 77.2002 136.719 76.9405 136.459C76.6809 136.199 76.551 135.882 76.551 135.507C76.551 135.132 76.6809 134.814 76.9405 134.555C77.2002 134.295 77.5176 134.165 77.8927 134.165C78.2533 134.165 78.5563 134.295 78.8015 134.555C79.0612 134.814 79.191 135.132 79.191 135.507C79.191 135.882 79.0612 136.199 78.8015 136.459C78.5563 136.719 78.2533 136.849 77.8927 136.849ZM78.8448 138.774V150.633H76.8756V138.774H78.8448ZM87.3727 150.828C86.2619 150.828 85.2521 150.575 84.3432 150.07C83.4488 149.565 82.7419 148.851 82.2226 147.928C81.7177 146.99 81.4652 145.908 81.4652 144.682C81.4652 143.47 81.7249 142.403 82.2442 141.479C82.778 140.542 83.4993 139.828 84.4081 139.337C85.317 138.832 86.3341 138.58 87.4593 138.58C88.5845 138.58 89.6016 138.832 90.5104 139.337C91.4193 139.828 92.1334 140.534 92.6527 141.458C93.1865 142.381 93.4534 143.456 93.4534 144.682C93.4534 145.908 93.1793 146.99 92.6311 147.928C92.0973 148.851 91.3688 149.565 90.4455 150.07C89.5222 150.575 88.498 150.828 87.3727 150.828ZM87.3727 149.096C88.0796 149.096 88.7432 148.931 89.3636 148.599C89.9839 148.267 90.4816 147.769 90.8567 147.106C91.2462 146.442 91.4409 145.634 91.4409 144.682C91.4409 143.73 91.2534 142.922 90.8783 142.258C90.5032 141.595 90.0127 141.104 89.4068 140.787C88.8009 140.455 88.1445 140.289 87.4377 140.289C86.7163 140.289 86.0527 140.455 85.4468 140.787C84.8554 141.104 84.3793 141.595 84.0186 142.258C83.658 142.922 83.4777 143.73 83.4777 144.682C83.4777 145.649 83.6508 146.464 83.997 147.127C84.3577 147.791 84.8337 148.289 85.4252 148.62C86.0167 148.938 86.6659 149.096 87.3727 149.096ZM101.82 138.558C103.263 138.558 104.431 138.998 105.326 139.878C106.22 140.744 106.667 141.999 106.667 143.643V150.633H104.72V143.925C104.72 142.742 104.424 141.84 103.833 141.22C103.241 140.585 102.433 140.268 101.409 140.268C100.37 140.268 99.5409 140.592 98.9205 141.241C98.3146 141.891 98.0117 142.835 98.0117 144.076V150.633H96.0425V138.774H98.0117V140.462C98.4012 139.856 98.9277 139.388 99.5914 139.056C100.269 138.724 101.012 138.558 101.82 138.558Z" fill="white"/>
<g clip-path="url(#clip0_0_1)">
<path d="M155.503 65.1346C152.316 59.6731 147.943 55.2993 142.52 52.1256C137.051 48.9294 130.847 47.3145 124.079 47.3145C117.311 47.3145 111.107 48.9294 105.604 52.1144C100.136 55.2881 95.7401 59.6731 92.5536 65.1346C89.3559 70.6186 87.7288 76.8316 87.7288 83.6053C87.7288 90.379 89.209 96.4237 92.1242 101.818C95.0734 107.268 99.1638 111.664 104.294 114.872C109.525 118.135 115.469 119.795 121.966 119.795C128.034 119.795 133.616 118.348 138.576 115.5C138.701 115.634 138.825 115.758 138.949 115.881C141.311 118.236 144.384 119.47 147.842 119.47C151.299 119.47 154.362 118.225 156.723 115.881C159.085 113.537 160.339 110.487 160.339 107.066V83.5941C160.339 76.8204 158.712 70.6074 155.514 65.1234L155.503 65.1346ZM130.023 94.719C128.316 95.762 126.373 96.2555 124.079 96.2555C121.785 96.2555 119.898 95.7396 118.147 94.6966C116.35 93.62 114.96 92.1621 113.898 90.2556C112.814 88.3154 112.294 86.1398 112.294 83.6053C112.294 81.0707 112.814 78.7942 113.898 76.854C114.96 74.9475 116.35 73.5008 118.147 72.4242C119.898 71.37 121.842 70.8654 124.079 70.8654C126.316 70.8654 128.316 71.37 130.023 72.4018C131.785 73.4784 133.141 74.9139 134.169 76.7979C135.232 78.7605 135.751 80.981 135.751 83.6053C135.751 86.2295 135.232 88.3491 134.169 90.3117C133.141 92.2069 131.785 93.6424 130.023 94.719Z" fill="#5127FF"/>
<path d="M236.847 26.6342C234.52 24.324 231.424 23.1016 227.921 23.1016C224.418 23.1016 221.48 24.2903 219.13 26.5445C216.712 28.8659 215.424 31.9612 215.424 35.4938V49.9944C211.277 48.2001 206.791 47.2917 202.045 47.2917C195.548 47.2917 189.604 48.9515 184.373 52.215C179.243 55.4224 175.141 59.8073 172.203 65.2689C169.288 70.6632 167.808 76.7976 167.808 83.4816C167.808 90.1655 169.435 96.4682 172.633 101.952C175.83 107.425 180.215 111.799 185.684 114.972C191.175 118.157 197.39 119.772 204.158 119.772C210.927 119.772 217.141 118.157 222.599 114.961C228.023 111.788 232.395 107.414 235.582 101.952C238.78 96.4682 240.407 90.2553 240.407 83.4816V35.5162C240.407 32.0285 239.175 28.9669 236.836 26.6454L236.847 26.6342ZM214.237 90.2889C213.209 92.2066 211.853 93.6533 210.102 94.7187C208.395 95.7617 206.452 96.2551 204.158 96.2551C201.864 96.2551 199.977 95.7393 198.226 94.6963C196.441 93.6197 195.051 92.1618 193.989 90.2328C192.893 88.2478 192.362 86.0497 192.362 83.504C192.362 80.9583 192.881 78.7378 193.955 76.8313C195.017 74.9472 196.407 73.5117 198.226 72.4127C199.977 71.3585 201.921 70.8538 204.158 70.8538C206.395 70.8538 208.395 71.3585 210.102 72.3902C211.876 73.4668 213.243 74.9023 214.271 76.7752C215.322 78.6929 215.842 80.891 215.842 83.504C215.842 86.117 215.322 88.2927 214.237 90.2889Z" fill="#5127FF"/>
<path d="M315.232 64.9216C312.102 59.4488 307.729 55.0975 302.249 51.9798C296.802 48.8845 290.542 47.3145 283.672 47.3145C276.802 47.3145 270.441 48.8845 264.983 51.9798C259.503 55.0975 255.141 59.4488 252 64.9216C248.893 70.3607 247.311 76.6409 247.311 83.6053C247.311 90.5696 248.893 96.7489 252 102.177C255.13 107.661 259.503 112.012 264.983 115.119C270.429 118.214 276.712 119.784 283.672 119.784C290.633 119.784 296.904 118.214 302.362 115.119C307.853 112.001 312.215 107.627 315.311 102.132C318.373 96.704 319.921 90.4687 319.921 83.594C319.921 76.7194 318.339 70.3495 315.232 64.9103V64.9216ZM293.808 90.4911C292.825 92.3079 291.503 93.6985 289.785 94.7303C288.068 95.7508 286.068 96.2555 283.672 96.2555C281.277 96.2555 279.288 95.762 277.559 94.7303C275.819 93.6873 274.475 92.2854 273.446 90.435C272.396 88.5285 271.876 86.2968 271.876 83.6053C271.876 80.9137 272.396 78.6484 273.458 76.6858C274.475 74.8129 275.819 73.3999 277.548 72.3681C279.266 71.3476 281.266 70.8429 283.661 70.8429C286.057 70.8429 288.045 71.3364 289.774 72.3681C291.492 73.3887 292.802 74.7793 293.785 76.6297C294.836 78.6035 295.345 80.8801 295.345 83.6053C295.345 86.3304 294.836 88.5622 293.797 90.4911H293.808Z" fill="#F14B80"/>
<path d="M395.311 64.9216C392.181 59.4488 387.808 55.0975 382.328 51.9798C376.881 48.8845 370.622 47.3145 363.752 47.3145C356.881 47.3145 350.52 48.8845 345.062 51.9798C339.582 55.0975 335.22 59.4488 332.079 64.9216C328.972 70.3607 327.39 76.6409 327.39 83.6053C327.39 90.5696 328.972 96.7489 332.079 102.177C335.209 107.661 339.582 112.012 345.062 115.119C350.509 118.214 356.791 119.784 363.752 119.784C370.712 119.784 376.983 118.214 382.441 115.119C387.932 112.001 392.294 107.627 395.39 102.132C398.452 96.704 400 90.4687 400 83.594C400 76.7194 398.418 70.3495 395.311 64.9103V64.9216ZM373.887 90.4911C372.904 92.3079 371.582 93.6985 369.864 94.7303C368.147 95.7508 366.147 96.2555 363.752 96.2555C361.356 96.2555 359.367 95.762 357.639 94.7303C355.898 93.6873 354.554 92.2854 353.525 90.435C352.475 88.5285 351.955 86.2968 351.955 83.6053C351.955 80.9137 352.475 78.6484 353.537 76.6858C354.554 74.8129 355.898 73.3999 357.627 72.3681C359.345 71.3476 361.345 70.8429 363.74 70.8429C366.136 70.8429 368.124 71.3364 369.853 72.3681C371.571 73.3887 372.881 74.7793 373.864 76.6297C374.915 78.6035 375.424 80.8801 375.424 83.6053C375.424 86.3304 374.915 88.5622 373.876 90.4911H373.887Z" fill="#F4DA02"/>
<path d="M31.9209 15.8352V45.9691C25.0282 44.5561 18.9944 44.5224 14.8814 44.8028C6.51977 45.3635 0.101695 52.2157 0 60.4024V15.8352C0 7.09891 7.14124 0 15.9661 0C24.791 0 31.9209 7.09891 31.9209 15.8352Z" fill="#5127FF"/>
<path d="M60.3502 60.4694C58.6101 58.8881 56.7231 57.3517 54.6666 55.8714C47.7966 50.9369 40.7118 48.0771 34.2485 46.4846C34.8135 46.137 35.3672 45.7669 35.9322 45.3632C48.2372 36.5148 47.7062 17.5619 47.6949 16.889C47.3333 8.14154 54.192 0.773471 62.983 0.425815C71.7966 0.123017 79.2316 6.87427 79.5819 15.5993C79.7175 18.8067 80.1468 41.9763 60.3502 60.4694Z" fill="#F14B80"/>
<path d="M60.3503 60.4698C60.3503 60.4698 60.3164 60.5035 60.3051 60.5147C58.5763 62.1296 56.7119 63.666 54.6667 65.1351C41.6949 74.4658 27.9548 76.3386 19.0282 76.3386C17.4915 76.3386 16.0904 76.2938 14.8814 76.2153C6.76836 75.6545 0.429378 69.1836 0.0225989 61.21C0 60.9408 0 60.6717 0 60.4025C0.101695 52.2158 6.51977 45.3636 14.8814 44.8029C18.9943 44.5225 25.0282 44.5561 31.9209 45.9692C32.678 46.1262 33.4576 46.3056 34.2486 46.4851C40.7119 48.0776 47.7966 50.9373 54.6667 55.8718C56.7232 57.3521 58.6102 58.8885 60.3503 60.4698Z" fill="#F29241"/>
<path d="M79.5821 105.406C79.2431 113.929 72.1696 120.602 63.6499 120.602C63.4352 120.602 63.2092 120.602 62.9945 120.591C54.1922 120.243 47.3335 112.864 47.6951 104.128C47.7177 103.432 48.2374 90.3672 35.9324 81.53C28.8815 76.4497 21.051 76.1469 17.0284 76.4161C8.20354 77.0105 0.621617 70.405 0.0340462 61.6687C0.0227468 61.5117 0.0114474 61.3659 0.0227468 61.2089C0.429526 69.1826 6.76851 75.6535 14.8815 76.2142C16.0905 76.2927 17.4917 76.3376 19.0284 76.3376C27.955 76.3376 41.6951 74.4647 54.6668 65.1341C56.712 63.6649 58.5764 62.1285 60.3052 60.5136C60.3165 60.5024 60.3391 60.48 60.3504 60.4688C80.147 78.5581 79.7177 102.221 79.5821 105.406Z" fill="#F4DA02"/>
<path d="M31.9322 104.724C31.9322 113.483 24.7797 120.57 15.9661 120.57C7.15254 120.57 0 113.483 0 104.724C0 95.9652 7.14124 88.8887 15.9661 88.8887C24.791 88.8887 31.9322 95.9764 31.9322 104.724Z" fill="#5127FF"/>
</g>
<defs>
<clipPath id="clip0_0_1">
<rect width="400" height="120.603" fill="white"/>
</clipPath>
</defs>
</svg>
